<svg width="905" height="905" viewBox="0 0 905 905" fill="none" xmlns="http://www.w3.org/2000/svg">
<circle cx="452.5" cy="452.5" r="452.5" fill="white"/>
<path d="M124.223 533.352C123.847 522.445 123.659 510.159 123.659 496.494C123.659 483.706 123.847 470.167 124.223 455.875C124.599 441.583 125.226 427.04 126.104 412.247C126.981 397.454 128.047 383.036 129.301 368.995L162.022 369.559C160.893 378.335 159.89 387.299 159.013 396.451C158.26 405.477 157.634 414.566 157.132 423.718C162.398 420.082 168.729 415.883 176.125 411.119C183.647 406.229 191.671 401.34 200.196 396.451C208.721 391.436 217.246 386.672 225.771 382.159C234.421 377.646 242.507 373.822 250.029 370.688L259.244 402.656C251.596 405.79 243.886 409.238 236.114 412.999C228.466 416.76 221.132 420.521 214.112 424.282C207.216 427.918 201.073 431.428 195.683 434.813C190.292 438.073 186.029 440.956 182.895 443.463C179.761 445.845 178.194 447.6 178.194 448.729C178.194 450.359 180.639 453.117 185.528 457.003C190.417 460.889 197.062 465.465 205.461 470.731C213.861 475.996 223.389 481.512 234.045 487.279C244.827 493.046 255.984 498.688 267.518 504.204L250.029 533.164C235.737 525.767 222.574 518.37 210.539 510.974C198.629 503.452 187.973 496.368 178.57 489.724C169.293 483.079 161.583 477.375 155.44 472.611C155.44 477.25 155.44 481.888 155.44 486.527C155.44 494.927 155.502 503.075 155.628 510.974C155.879 518.746 156.129 526.018 156.38 532.787L124.223 533.352ZM327.446 534.856C318.043 534.856 309.518 532.411 301.871 527.522C294.224 522.758 288.143 516.302 283.63 508.153C279.242 499.879 277.048 490.664 277.048 480.509C277.048 470.981 278.804 462.394 282.314 454.746C285.824 446.974 290.588 440.329 296.606 434.813C302.749 429.297 309.707 425.097 317.479 422.214C325.252 419.205 333.401 417.7 341.926 417.7C349.072 417.7 356.092 418.703 362.988 420.709C363.489 418.076 363.928 415.444 364.304 412.811L396.461 418.265C395.583 420.646 394.705 424.219 393.828 428.983C392.95 433.747 392.198 439.075 391.571 444.968C391.07 450.86 390.631 456.752 390.255 462.645C389.879 468.537 389.691 473.865 389.691 478.629C389.691 482.515 389.942 486.339 390.443 490.1C391.07 493.736 392.324 496.744 394.204 499.126C396.085 501.383 398.968 502.511 402.854 502.511H405.487L400.786 535.232C392.512 535.232 385.679 533.79 380.288 530.907C374.897 528.149 370.572 524.388 367.313 519.624C361.922 525.642 355.779 529.653 348.884 531.659C341.989 533.79 334.843 534.856 327.446 534.856ZM307.889 484.27C308.516 490.288 310.96 495.115 315.223 498.75C319.611 502.261 325.127 504.016 331.771 504.016C338.165 504.016 343.493 502.323 347.755 498.938C352.018 495.428 355.528 490.664 358.286 484.646C358.161 482.641 358.098 480.572 358.098 478.441C358.098 474.053 358.224 469.54 358.474 464.901C358.725 460.263 359.039 455.687 359.415 451.173C354.149 449.168 348.633 448.165 342.866 448.165C336.096 448.165 330.016 449.544 324.625 452.302C319.36 454.934 315.223 458.633 312.214 463.397C309.205 468.161 307.701 473.677 307.701 479.945C307.701 480.697 307.701 481.45 307.701 482.202C307.701 482.954 307.763 483.644 307.889 484.27ZM418.936 533.54C418.936 523.26 419.124 512.227 419.5 500.443C419.876 488.658 420.377 476.686 421.004 464.525C421.631 452.364 422.258 440.455 422.885 428.795C423.637 417.136 424.389 406.167 425.141 395.886C425.894 385.481 426.52 376.267 427.022 368.243L458.426 368.619C457.674 375.765 456.922 383.789 456.17 392.69C455.543 401.591 454.916 411.056 454.289 421.085C457.925 419.581 461.811 418.453 465.948 417.7C470.211 416.823 474.787 416.384 479.676 416.384C486.321 416.384 492.652 417.512 498.669 419.769C504.812 421.9 510.328 425.222 515.218 429.736C520.107 434.249 523.931 440.078 526.689 447.224C529.572 454.37 531.014 462.958 531.014 472.987C531.014 483.644 529.51 492.858 526.501 500.631C523.492 508.404 519.417 514.797 514.277 519.812C509.137 524.827 503.308 528.525 496.789 530.907C490.395 533.414 483.813 534.668 477.043 534.668C471.903 534.668 467.077 533.978 462.563 532.599C458.176 531.22 454.101 529.403 450.34 527.146C450.34 529.152 450.34 531.158 450.34 533.164L418.936 533.54ZM475.351 447.977C465.948 447.977 458.301 450.735 452.409 456.251C451.907 467.785 451.468 479.068 451.092 490.1C457.235 498.249 465.823 502.323 476.855 502.323C480.491 502.323 484.127 501.508 487.762 499.879C491.523 498.123 494.657 495.177 497.165 491.04C499.672 486.903 500.926 481.136 500.926 473.74C500.926 465.34 498.732 458.946 494.344 454.558C490.082 450.17 483.75 447.977 475.351 447.977ZM600.565 535.044C588.53 535.044 577.936 532.662 568.784 527.898C559.758 523.26 552.675 516.74 547.534 508.341C542.52 499.941 540.012 490.225 540.012 479.193C540.012 472.549 541.141 465.591 543.397 458.319C545.654 450.923 549.29 444.027 554.304 437.634C559.319 431.24 565.901 426.037 574.05 422.026C582.324 418.014 592.353 416.008 604.138 416.008C612.663 416.008 619.809 416.948 625.576 418.829C631.468 420.709 636.232 423.154 639.867 426.163C643.628 429.171 646.449 432.368 648.33 435.753C650.336 439.138 651.652 442.398 652.279 445.532C653.031 448.541 653.407 451.048 653.407 453.054C653.407 465.215 648.267 474.617 637.987 481.262C627.832 487.781 613.415 491.04 594.735 491.04C590.473 491.04 586.398 490.852 582.512 490.476C578.751 490.1 575.241 489.661 571.981 489.16C574.363 495.428 578.312 500.067 583.828 503.075C589.344 505.959 595.049 507.401 600.941 507.401C609.466 507.401 616.988 505.896 623.507 502.887C630.026 499.753 636.169 494.989 641.936 488.596L658.672 512.666C654.661 515.926 650.148 519.31 645.133 522.821C640.244 526.331 634.226 529.214 627.08 531.471C619.934 533.853 611.096 535.044 600.565 535.044ZM604.702 444.216C597.305 444.216 590.786 446.096 585.145 449.857C579.503 453.618 575.366 458.57 572.733 464.713C575.867 465.215 578.939 465.653 581.948 466.029C585.082 466.28 588.153 466.406 591.162 466.406C593.92 466.406 597.055 466.155 600.565 465.653C604.2 465.152 607.711 464.4 611.096 463.397C614.606 462.394 617.489 461.14 619.746 459.636C622.003 458.006 623.131 456.125 623.131 453.994C623.131 452.991 622.629 451.738 621.626 450.233C620.624 448.729 618.806 447.35 616.173 446.096C613.54 444.842 609.717 444.216 604.702 444.216ZM730.033 535.044C717.998 535.044 707.405 532.662 698.253 527.898C689.226 523.26 682.143 516.74 677.003 508.341C671.988 499.941 669.481 490.225 669.481 479.193C669.481 472.549 670.609 465.591 672.866 458.319C675.123 450.923 678.758 444.027 683.773 437.634C688.788 431.24 695.369 426.037 703.518 422.026C711.792 418.014 721.822 416.008 733.606 416.008C742.131 416.008 749.277 416.948 755.044 418.829C760.936 420.709 765.7 423.154 769.336 426.163C773.097 429.171 775.918 432.368 777.798 435.753C779.804 439.138 781.12 442.398 781.747 445.532C782.5 448.541 782.876 451.048 782.876 453.054C782.876 465.215 777.736 474.617 767.455 481.262C757.301 487.781 742.883 491.04 724.204 491.04C719.941 491.04 715.867 490.852 711.98 490.476C708.219 490.1 704.709 489.661 701.45 489.16C703.832 495.428 707.781 500.067 713.297 503.075C718.813 505.959 724.517 507.401 730.409 507.401C738.934 507.401 746.456 505.896 752.976 502.887C759.495 499.753 765.638 494.989 771.405 488.596L788.141 512.666C784.129 515.926 779.616 519.31 774.601 522.821C769.712 526.331 763.694 529.214 756.549 531.471C749.403 533.853 740.564 535.044 730.033 535.044ZM734.17 444.216C726.774 444.216 720.255 446.096 714.613 449.857C708.972 453.618 704.835 458.57 702.202 464.713C705.336 465.215 708.408 465.653 711.416 466.029C714.551 466.28 717.622 466.406 720.631 466.406C723.389 466.406 726.523 466.155 730.033 465.653C733.669 465.152 737.179 464.4 740.564 463.397C744.074 462.394 746.958 461.14 749.215 459.636C751.471 458.006 752.599 456.125 752.599 453.994C752.599 452.991 752.098 451.738 751.095 450.233C750.092 448.729 748.274 447.35 745.642 446.096C743.009 444.842 739.185 444.216 734.17 444.216Z" fill="#05282D"/>
</svg>
