<svg width="201" height="51" viewBox="0 0 201 51" fill="none" xmlns="http://www.w3.org/2000/svg">
<path d="M0.672102 50.0111C0.559114 46.7344 0.50262 43.0435 0.50262 38.9383C0.50262 35.0967 0.559114 31.0291 0.672102 26.7356C0.78509 22.4421 0.973402 18.0732 1.23704 13.629C1.50068 9.18483 1.82081 4.85363 2.19744 0.635421L12.0274 0.804904C11.6884 3.44128 11.3871 6.13416 11.1235 8.88353C10.8975 11.5952 10.7092 14.3258 10.5585 17.0751C12.1404 15.9829 14.0423 14.7212 16.2644 13.29C18.5242 11.8212 20.9346 10.3524 23.4956 8.88353C26.0567 7.37702 28.6177 5.94584 31.1788 4.58999C33.7775 3.23414 36.2067 2.08543 38.4665 1.14387L41.2347 10.7478C38.9373 11.6894 36.621 12.7251 34.286 13.855C31.9885 14.9849 29.7853 16.1147 27.6762 17.2446C25.6047 18.3368 23.7593 19.3914 22.1398 20.4083C20.5203 21.3875 19.2398 22.2537 18.2982 23.007C17.3566 23.7226 16.8858 24.2499 16.8858 24.5888C16.8858 25.0784 17.6203 25.907 19.0891 27.0746C20.5579 28.2421 22.5541 29.6168 25.0775 31.1986C27.6008 32.7804 30.4632 34.4376 33.6645 36.1701C36.9035 37.9025 40.2555 39.5974 43.7204 41.2545L38.4665 49.9546C34.173 47.7325 30.2184 45.5104 26.6028 43.2883C23.0248 41.0285 19.8235 38.9006 16.9988 36.9045C14.2118 34.9084 11.8956 33.1947 10.0501 31.7635C10.0501 33.1571 10.0501 34.5506 10.0501 35.9441C10.0501 38.4675 10.0689 40.9156 10.1066 43.2883C10.1819 45.6234 10.2572 47.8078 10.3326 49.8416L0.672102 50.0111ZM61.7239 50.463C58.8992 50.463 56.3381 49.7286 54.0407 48.2598C51.7433 46.8286 49.9167 44.889 48.5608 42.4409C47.2426 39.9552 46.5835 37.187 46.5835 34.1363C46.5835 31.2739 47.1108 28.694 48.1653 26.3966C49.2199 24.0615 50.6511 22.0654 52.4589 20.4083C54.3044 18.7511 56.3946 17.4894 58.7297 16.6232C61.0648 15.7193 63.5129 15.2673 66.0739 15.2673C68.2207 15.2673 70.3298 15.5686 72.4012 16.1712C72.5519 15.3803 72.6837 14.5894 72.7967 13.7985L82.4571 15.4368C82.1935 16.1524 81.9299 17.2258 81.6662 18.657C81.4026 20.0881 81.1766 21.6888 80.9883 23.4589C80.8376 25.2291 80.7058 26.9992 80.5928 28.7694C80.4798 30.5395 80.4234 32.1402 80.4234 33.5713C80.4234 34.7389 80.4987 35.8876 80.6493 37.0175C80.8376 38.1097 81.2143 39.0136 81.7792 39.7292C82.3441 40.4071 83.2104 40.7461 84.3779 40.7461H85.1688L83.7565 50.576C81.2708 50.576 79.2181 50.1429 77.5987 49.2766C75.9792 48.4481 74.6798 47.3182 73.7006 45.887C72.0811 47.6948 70.2356 48.9 68.1642 49.5026C66.0927 50.1429 63.946 50.463 61.7239 50.463ZM55.8485 35.2662C56.0368 37.074 56.7712 38.524 58.0518 39.6162C59.37 40.6707 61.0271 41.198 63.0232 41.198C64.944 41.198 66.5447 40.6896 67.8252 39.6727C69.1057 38.6181 70.1603 37.187 70.9889 35.3792C70.9512 34.7766 70.9324 34.1551 70.9324 33.5149C70.9324 32.1967 70.97 30.8408 71.0454 29.4473C71.1207 28.0538 71.2148 26.6791 71.3278 25.3232C69.746 24.7206 68.0889 24.4193 66.3564 24.4193C64.3226 24.4193 62.496 24.8336 60.8765 25.6622C59.2946 26.4531 58.0518 27.5642 57.1479 28.9953C56.244 30.4265 55.792 32.0837 55.792 33.9668C55.792 34.1928 55.792 34.4188 55.792 34.6447C55.792 34.8707 55.8109 35.0779 55.8485 35.2662ZM89.209 50.0676C89.209 46.9792 89.2655 43.6649 89.3785 40.1246C89.4915 36.5844 89.6421 32.9876 89.8305 29.3343C90.0188 25.681 90.2071 22.1031 90.3954 18.6005C90.6214 15.0979 90.8473 11.8024 91.0733 8.71404C91.2993 5.58805 91.4876 2.81985 91.6383 0.409445L101.073 0.522431C100.847 2.6692 100.621 5.07961 100.395 7.75365C100.207 10.4277 100.018 13.2712 99.8299 16.2842C100.922 15.8323 102.09 15.4933 103.332 15.2673C104.613 15.0037 105.988 14.8719 107.457 14.8719C109.453 14.8719 111.355 15.2108 113.162 15.8888C115.008 16.529 116.665 17.5271 118.134 18.8829C119.603 20.2388 120.751 21.9901 121.58 24.1369C122.446 26.2836 122.879 28.8635 122.879 31.8765C122.879 35.0779 122.427 37.8461 121.524 40.1811C120.62 42.5162 119.396 44.437 117.851 45.9435C116.307 47.45 114.556 48.5611 112.597 49.2766C110.677 50.0299 108.699 50.4065 106.666 50.4065C105.121 50.4065 103.671 50.1994 102.316 49.7851C100.997 49.3708 99.7734 48.8247 98.6435 48.1468C98.6435 48.7494 98.6435 49.352 98.6435 49.9546L89.209 50.0676ZM106.157 24.3628C103.332 24.3628 101.035 25.1914 99.2649 26.8486C99.1143 30.3135 98.9825 33.7032 98.8695 37.0175C100.715 39.4655 103.295 40.6896 106.609 40.6896C107.701 40.6896 108.794 40.4448 109.886 39.9552C111.016 39.4279 111.957 38.5428 112.71 37.2999C113.464 36.0571 113.84 34.3246 113.84 32.1025C113.84 29.5791 113.181 27.6583 111.863 26.3401C110.583 25.0219 108.681 24.3628 106.157 24.3628ZM143.774 50.5195C140.158 50.5195 136.976 49.8039 134.226 48.3727C131.515 46.9792 129.387 45.0208 127.842 42.4974C126.336 39.974 125.583 37.0551 125.583 33.7408C125.583 31.7447 125.922 29.6544 126.6 27.47C127.278 25.2479 128.37 23.1765 129.876 21.2557C131.383 19.3349 133.36 17.7719 135.808 16.5667C138.294 15.3615 141.307 14.7589 144.847 14.7589C147.408 14.7589 149.555 15.0414 151.287 15.6063C153.058 16.1712 154.489 16.9057 155.581 17.8096C156.711 18.7135 157.558 19.6739 158.123 20.6907C158.726 21.7076 159.121 22.6869 159.31 23.6284C159.536 24.5323 159.649 25.2856 159.649 25.8882C159.649 29.5415 158.104 32.3661 155.016 34.3623C151.965 36.3207 147.634 37.2999 142.022 37.2999C140.742 37.2999 139.518 37.2434 138.35 37.1305C137.22 37.0175 136.166 36.8857 135.187 36.735C135.902 38.6181 137.089 40.0116 138.746 40.9156C140.403 41.7818 142.117 42.2149 143.887 42.2149C146.448 42.2149 148.708 41.763 150.666 40.8591C152.624 39.9175 154.47 38.4863 156.202 36.5655L161.23 43.7967C160.025 44.776 158.669 45.7929 157.163 46.8474C155.694 47.902 153.886 48.7682 151.739 49.4461C149.593 50.1617 146.937 50.5195 143.774 50.5195ZM145.017 23.233C142.794 23.233 140.836 23.7979 139.141 24.9278C137.446 26.0577 136.204 27.5453 135.413 29.3908C136.354 29.5415 137.277 29.6733 138.181 29.7863C139.122 29.8616 140.045 29.8992 140.949 29.8992C141.778 29.8992 142.719 29.8239 143.774 29.6733C144.866 29.5226 145.92 29.2966 146.937 28.9953C147.992 28.694 148.858 28.3174 149.536 27.8655C150.214 27.3759 150.553 26.8109 150.553 26.1707C150.553 25.8693 150.402 25.4927 150.101 25.0408C149.8 24.5888 149.254 24.1745 148.463 23.7979C147.672 23.4213 146.523 23.233 145.017 23.233ZM182.668 50.5195C179.053 50.5195 175.87 49.8039 173.121 48.3727C170.409 46.9792 168.281 45.0208 166.737 42.4974C165.231 39.974 164.477 37.0551 164.477 33.7408C164.477 31.7447 164.816 29.6544 165.494 27.47C166.172 25.2479 167.264 23.1765 168.771 21.2557C170.277 19.3349 172.255 17.7719 174.703 16.5667C177.189 15.3615 180.202 14.7589 183.742 14.7589C186.303 14.7589 188.45 15.0414 190.182 15.6063C191.952 16.1712 193.383 16.9057 194.476 17.8096C195.606 18.7135 196.453 19.6739 197.018 20.6907C197.62 21.7076 198.016 22.6869 198.204 23.6284C198.43 24.5323 198.543 25.2856 198.543 25.8882C198.543 29.5415 196.999 32.3661 193.911 34.3623C190.86 36.3207 186.529 37.2999 180.917 37.2999C179.637 37.2999 178.413 37.2434 177.245 37.1305C176.115 37.0175 175.061 36.8857 174.081 36.735C174.797 38.6181 175.983 40.0116 177.64 40.9156C179.298 41.7818 181.011 42.2149 182.781 42.2149C185.342 42.2149 187.602 41.763 189.561 40.8591C191.519 39.9175 193.365 38.4863 195.097 36.5655L200.125 43.7967C198.92 44.776 197.564 45.7929 196.057 46.8474C194.589 47.902 192.781 48.7682 190.634 49.4461C188.487 50.1617 185.832 50.5195 182.668 50.5195ZM183.911 23.233C181.689 23.233 179.731 23.7979 178.036 24.9278C176.341 26.0577 175.098 27.5453 174.307 29.3908C175.249 29.5415 176.172 29.6733 177.076 29.7863C178.017 29.8616 178.94 29.8992 179.844 29.8992C180.672 29.8992 181.614 29.8239 182.668 29.6733C183.761 29.5226 184.815 29.2966 185.832 28.9953C186.887 28.694 187.753 28.3174 188.431 27.8655C189.109 27.3759 189.448 26.8109 189.448 26.1707C189.448 25.8693 189.297 25.4927 188.996 25.0408C188.694 24.5888 188.148 24.1745 187.357 23.7979C186.567 23.4213 185.418 23.233 183.911 23.233Z" fill="#05282D"/>
</svg>
